<svg width="32" height="32" viewBox="0 0 32 32" fill="none" xmlns="http://www.w3.org/2000/svg">
  <!-- 배경 -->
  <rect width="32" height="32" rx="6" fill="url(#gradient)"/>
  
  <!-- 차트 바들 (상승하는 막대그래프) -->
  <rect x="4" y="24" width="4" height="4" rx="2" fill="white" fill-opacity="0.9"/>
  <rect x="9" y="20" width="4" height="8" rx="2" fill="white" fill-opacity="0.9"/>
  <rect x="14" y="16" width="4" height="12" rx="2" fill="white" fill-opacity="0.9"/>
  <rect x="19" y="12" width="4" height="16" rx="2" fill="white" fill-opacity="0.9"/>
  <rect x="24" y="8" width="4" height="20" rx="2" fill="white" fill-opacity="0.9"/>
  
  <!-- 트렌드 라인 -->
  <path d="M2 28L6 24L11 20L16 16L21 12L26 8L30 4" 
        stroke="white" 
        stroke-width="2" 
        stroke-linecap="round" 
        stroke-linejoin="round" 
        fill-opacity="0.7"/>
  
  <!-- 데이터 포인트 -->
  <circle cx="6" cy="24" r="1.5" fill="white"/>
  <circle cx="11" cy="20" r="1.5" fill="white"/>
  <circle cx="16" cy="16" r="1.5" fill="white"/>
  <circle cx="21" cy="12" r="1.5" fill="white"/>
  <circle cx="26" cy="8" r="1.5" fill="white"/>
  
  <!-- 그라데이션 정의 -->
  <defs>
    <linearGradient id="gradient" x1="0%" y1="0%" x2="100%" y2="100%">
      <stop offset="0%" style="stop-color:#fa5014"/>
      <stop offset="50%" style="stop-color:#ff7043"/>
      <stop offset="100%" style="stop-color:#fa5014"/>
    </linearGradient>
  </defs>
</svg>